<svg width="15" height="14" viewBox="0 0 15 14" fill="none" xmlns="http://www.w3.org/2000/svg">
<path d="M1.375 6.375H13.875C14.0575 6.375 14.2073 6.43354 14.3244 6.55062C14.4415 6.66771 14.5 6.8175 14.5 7C14.5 7.1825 14.4415 7.33229 14.3244 7.44938C14.2073 7.56646 14.0575 7.625 13.875 7.625H1.375C1.1925 7.625 1.04271 7.56646 0.925625 7.44938C0.808542 7.33229 0.75 7.1825 0.75 7C0.75 6.8175 0.808542 6.66771 0.925625 6.55062C1.04271 6.43354 1.1925 6.375 1.375 6.375ZM1.62875 7L6.82438 12.1756C6.94146 12.306 7 12.4558 7 12.625C7 12.7942 6.93813 12.9406 6.81437 13.0644C6.69063 13.1881 6.54417 13.25 6.375 13.25C6.20583 13.25 6.05604 13.1915 5.92562 13.0744L0.300625 7.44938C0.183542 7.31896 0.125 7.16917 0.125 7C0.125 6.83083 0.183542 6.68104 0.300625 6.55062L5.92562 0.925625C6.05604 0.808542 6.20583 0.75 6.375 0.75C6.54417 0.75 6.69063 0.811875 6.81437 0.935625C6.93813 1.05937 7 1.20583 7 1.375C7 1.54417 6.94146 1.69396 6.82438 1.82437L1.62875 7Z" fill="#303133"/>
</svg>
