<svg width="18" height="18" viewBox="0 0 18 18" fill="none" xmlns="http://www.w3.org/2000/svg">
<path fill-rule="evenodd" clip-rule="evenodd" d="M13.0277 7.46006C13.1402 7.90634 12.8696 8.35931 12.4233 8.47179C11.977 8.58428 11.5241 8.31368 11.4116 7.8674C11.138 6.78215 10.2555 5.94121 9.15611 5.72259C8.70471 5.63283 8.41155 5.19413 8.50131 4.74273C8.59107 4.29134 9.02977 3.99817 9.48117 4.08794C11.2125 4.43223 12.597 5.75148 13.0277 7.46006ZM17.0744 15.8332L14.538 13.3069C15.6608 11.9309 16.2736 10.2116 16.273 8.43843C16.273 4.15773 12.7765 0.666504 8.46974 0.666504C4.16299 0.666504 0.666504 4.14896 0.666504 8.43843C0.666504 12.7279 4.16299 16.2104 8.46974 16.2104C10.284 16.2104 11.9574 15.5876 13.2873 14.5437L15.8326 17.0788C16.0088 17.2542 16.2289 17.3332 16.4579 17.3332C16.6869 17.3332 16.9071 17.2455 17.0833 17.0788C17.4179 16.7367 17.4179 16.1753 17.0744 15.8332ZM2.42796 8.43843C2.42796 5.12264 5.1406 2.42089 8.46974 2.42089C11.7989 2.42089 14.5115 5.12264 14.5115 8.43843C14.5115 11.7542 11.7989 14.456 8.46974 14.456C5.1406 14.456 2.42796 11.7542 2.42796 8.43843Z" fill="#303133"/>
</svg>
